<svg height='300px' width='300px'  fill="#FFFFFF" xmlns="http://www.w3.org/2000/svg" xmlns:xlink="http://www.w3.org/1999/xlink" version="1.1" x="0px" y="0px" viewBox="0 0 100 100" style="enable-background:new 0 0 100 100;" xml:space="preserve"><style type="text/css">
	.st0{fill-rule:evenodd;clip-rule:evenodd;}
</style><g><path class="st0" d="M90.893,34.535c-0.335-2.292-0.96-4.508-2.083-6.553c-0.338-0.616-0.737-1.476-1.106-1.922   c-0.424-0.534-0.916-1.351-1.554-1.8c-0.419-0.295-2.992-1.478-2.977-1.597c0.01-0.081-0.596-0.248-0.734-0.318   c-0.152-0.078-1.425-0.522-1.425-0.52c-0.041-0.121-0.338-0.085-0.442-0.212c-0.006-0.045-0.131-0.538-0.208-0.566   c-0.151-0.054-0.295-1.034-0.39-1.227c-0.287-0.586-0.75-1.467-1.24-1.909c-0.859-0.776-1.173-2.481-2.358-3.011   c-0.124-0.057-0.324-0.302-0.419-0.42c-0.114-0.141-0.718-0.192-0.795-0.417c-0.123-0.361-1.66-0.69-1.997-0.792   c-1.473-0.448-3.185-0.633-4.676-0.889c-1.194-0.206-2.435-0.232-3.643-0.183c-0.821,0.034-1.602,0.252-2.399,0.351   c-0.85,0.102-1.907,0.379-2.673,0.773c-0.9,0.464-2.025,0.544-2.949,0.989c-0.485,0.233-0.837,0.654-1.297,0.922   c-0.455,0.265-0.632,0.109-0.968-0.083c-0.353-0.2-0.833-0.548-1.259-0.755c-1.746-0.849-3.628-1.117-5.538-1.594   c-0.388-0.097-0.941-0.065-1.342-0.084c-0.718-0.034-1.438-0.011-2.154,0.057c-0.656,0.062-1.309,0.163-1.955,0.291   c-0.357,0.071-1.36,0.117-1.597,0.407c-0.013,0.016-0.808,0.343-0.836,0.338c-0.098-0.017-0.439,0.286-0.584,0.315   c-0.389,0.079-1.416,0.361-1.684,0.69c-0.009,0.011-0.618,0.333-0.671,0.336c-0.624,0.032-1.14,0.891-1.762,0.923   c-0.074,0.004-0.52,0.287-0.588,0.336c-0.492,0.36-0.952,0.883-1.393,1.309c-0.731,0.706-1.261,1.607-2.02,2.272   c-0.379,0.332-0.696,1.23-0.879,1.762c-0.32,0.933-0.538,2.408-1.268,3.11c-0.32,0.308-0.929,0.181-1.321,0.274   c-0.446,0.105-0.896-0.011-1.342,0.168c-0.666,0.267-1.472,0.501-2.153,0.678c-0.437,0.114-0.996,0.525-1.381,0.774   c-0.127,0.082-0.827,0.579-0.912,0.562c-0.356-0.068-0.936,1.917-1.294,1.99c-0.208,0.042-0.896,1.594-0.934,1.869   c-0.025,0.178-0.145,0.283-0.206,0.42c-0.313,0.679-0.582,1.381-0.764,2.108c-0.458,1.825-0.952,3.794-0.579,5.696   c0.151,0.768,0.426,1.383,0.68,2.071c0.177,0.48,0.422,1.365,0.746,1.62c0.071,0.058,0.111,0.339,0.168,0.42   c0.305,0.432,0.715,0.883,1.091,1.259c0.519,0.52,0.919,1.172,1.51,1.678c0.374,0.318,0.722,0.397,0.851,0.952   c0.074,0.318,0.174,0.793,0.324,1.062c0.113,0.205,0.302,0.384,0.42,0.587c0.179,0.308,0.349,0.972,0.586,1.172   c0.411,0.347,0.457,1.111,0.841,1.429c0.161,0.131,0.279,0.649,0.504,0.836c0.242,0.202,0.421,0.659,0.587,0.926   c0.246,0.396,0.62,0.782,0.945,1.12c0.175,0.182,0.804,0.487,1.069,0.517c0.208,0.024,0.582,0.265,0.755,0.376   c0.346,0.221,0.749,0.286,1.091,0.503c0.452,0.288,1.127,0.475,1.594,0.672c0.6,0.248,1.246,0.36,1.875,0.506   c0.552,0.128,1.177,0.466,1.733,0.501c0.766,0.04,1.554,0.534,2.372,0.507c0.693-0.023,1.391,0.054,2.075,0.164   c0.278,0.045,0.555,0.163,0.839,0.168c0.446,0.007,0.82-0.208,1.279-0.147c0.813,0.107,1.447-0.238,2.216-0.41   c1.006-0.225,2.169-0.254,3.134-0.617c0.334-0.126,0.608-0.48,0.993-0.332c0.427,0.165,0.644,0.604,1.02,0.835   c0.766,0.471,1.362,1.157,2.182,1.51c1.717,0.734,3.645,1.515,5.572,1.813c1.256,0.194,2.572,0.353,3.83,0.077   c1.318-0.289,2.707-0.157,4.025-0.407c0.859-0.163,1.956,0.02,2.7-0.455c0.308-0.196,0.638-0.521,0.991-0.607   c0.577-0.14,0.828-0.772,1.294-1.108c0.587-0.423,1.217-0.748,1.81-1.16c0.524-0.363,0.677-0.777,1.397-0.672   c0.694,0.101,1.371,0.158,2.074,0.102c0.643-0.051,1.275-0.157,1.906-0.287c0.329-0.068,0.675-0.072,1-0.15   c0.191-0.046,0.301-0.198,0.496-0.178c0.442,0.044,1.172-0.398,1.682-0.329c0.196,0.027,0.402-0.316,0.675-0.332   c0.487-0.025,1.4-1.064,1.758-1.01c0.18,0.027,0.814-0.403,1.011-0.5c0.224-0.112,0.442-0.274,0.671-0.42   c0.444-0.284,1.038-0.492,1.426-0.839c0.211-0.188,0.314-0.643,0.544-0.755c0.278-0.134,0.722-0.98,0.798-1.259   c0.357-1.214,0.459-2.55,0.283-3.8c-0.215-1.528-0.276-2.942-0.718-4.421c-0.266-0.889,0.499-1.149,1.022-1.68   c0.855-0.868,1.63-1.955,2.35-2.937C90.934,36.99,91.086,35.832,90.893,34.535C90.872,34.391,90.907,34.627,90.893,34.535z    M85.272,35.122c-0.287,0.692-0.886,1.339-1.342,1.93c-0.679,0.877-1.493,2.224-2.602,2.601c-0.056,0.212-0.119,0.476-0.335,0.587   c-0.034,0.317-0.036,0.638-0.007,0.955c0.053,0.587,0.213,1.155,0.4,1.711c0.094,0.279,0.89,2.946,0.742,2.955   c0.408-0.023-0.082,2.541-0.041,2.896c0.052,0.449-0.681,1.2-0.983,1.512c-0.224,0.231-0.806,0.823-1.038,0.791   c-0.025-0.003-0.552,0.217-0.583,0.256c-0.111,0.128-0.403,0.127-0.503,0.252c-0.041,0.051-0.736,0.414-0.839,0.42   c-0.088,0.005-0.333,0.133-0.419,0.168c-0.268,0.107-0.519,0.155-0.828,0.201c-0.605,0.091-1.263,0.169-1.781,0.225   c-0.388,0.042-0.709-0.117-1.073-0.258c-0.646-0.25-1.359-0.261-2.046-0.305c-1.43-0.09-2.031-0.574-3.112,0.424   c-0.543,0.501-0.915,1.03-1.313,1.558c-0.289,0.383-0.437,0.842-0.793,1.181c-0.365,0.348-0.948,0.615-1.389,0.833   c-0.656,0.33-1.315,0.601-2.061,0.684c-0.547,0.061-1.098,0.08-1.647,0.131c-0.456,0.042-0.879-0.02-1.327,0.025   c-0.747,0.074-1.239,0.289-2.021,0.106c-0.357-0.084-0.921-0.341-1.252-0.357c-0.967-0.052-1.535-0.5-2.203-1.203   c-0.644-0.678-1.429-0.976-1.992-1.734c-0.684-0.921-1.417-1.807-2.401-2.452c-1.048-0.686-2.275-0.036-3.173,0.617   c-0.413,0.301-1.145,1.157-1.641,1.204c-0.194,0.018-0.47,0.257-0.701,0.338c-0.386,0.134-0.689,0.167-1.129,0.18   c-0.606,0.018-1.136,0.303-1.759,0.287c-0.773-0.02-1.508-0.099-2.283-0.038c-0.588,0.047-2.741,0.229-3.123-0.461   c-0.242-0.438-1.343-0.546-1.745-0.598c-2.564-0.337-4.484-3.11-5.454-5.118c-0.275-0.579-0.385-1.38-0.826-1.913   c-0.07-0.084-0.522-0.447-0.604-0.434c-0.152,0.024-0.269-0.236-0.416-0.339c-0.275-0.194-1.041-0.403-1.258-0.671   c-0.234-0.286-0.416-0.435-0.703-0.645c-0.256-0.187-1.148-0.874-1.19-1.15c-0.018-0.119-0.334-0.606-0.373-0.638   c-0.302-0.248-0.422-0.482-0.586-0.779c-0.329-0.593-0.497-1.549-0.62-2.222c-0.171-0.937,0.104-1.895,0.105-2.838   c0-0.956,0.312-1.978,0.514-2.888c0.111-0.508,0.509-1.211,0.796-1.693c0.057-0.096,0.216-0.433,0.208-0.493   c-0.022-0.161,0.329-0.298,0.339-0.5c0.027-0.506,1.926-0.926,2.297-0.972c0.589-0.072,1.045-0.196,1.598-0.397   c0.668-0.242,1.401,0.052,2.084-0.085c0.342-0.069,0.442-0.19,0.8-0.209c0.279-0.015,0.539-0.109,0.8-0.199   c0.428-0.147,1.388,0,1.473-0.583c0.068-0.471,0.315-0.768,0.401-1.246c0.105-0.58,0.506-1.367,0.438-1.939   c-0.049-0.416,0.638-1.031,0.594-1.339c-0.036-0.247,0.563-0.737,0.709-1.076c0.173-0.402,0.497-1.263,0.846-1.439   c0.516-0.26,0.792-0.897,1.218-1.257c0.123-0.104,0.562-0.264,0.628-0.423c0.073-0.176,1.121-0.826,1.302-0.835   c0.267-0.014,0.71-0.39,0.979-0.49c0.458-0.171,0.909-0.385,1.37-0.463c0.559-0.095,1.008-0.403,1.541-0.534   c0.568-0.14,1.18-0.145,1.761-0.124c1.123,0.04,2.339,0.051,3.411,0.436c1.544,0.556,2.542,1.565,3.96,2.386   c0.456,0.264,0.984,0.945,1.531,0.986c0.478,0.036,0.877,0.32,1.39,0.285c0.425-0.029,0.973-0.329,1.341-0.553   c0.8-0.487,1.343-1.655,2.174-1.99c0.259-0.105,0.308-0.369,0.512-0.527c0.117-0.091,0.231-0.047,0.337-0.171   c0.253-0.296,0.795-0.251,1.118-0.412c1.933-0.965,4.055-0.861,6.115-0.61c0.818,0.1,1.631,0.394,2.467,0.463   c0.339,0.028,2.053,0.21,2.152,0.61c0.041,0.165,0.499,0.326,0.611,0.525c0.187,0.332,0.472,0.517,0.709,0.854   c0.632,0.896,1.115,2.028,1.578,3.035c0.21,0.457,0.148,1.014,0.268,1.496c0.189,0.755,0.508,0.986,1.038,1.48   c0.435,0.406,0.802,0.679,1.394,0.775c0.327,0.053,1.928-0.005,2.036,0.22c0.029,0.061,0.771,0.29,0.887,0.352   c0.386,0.207,0.824,0.329,1.19,0.529c0.639,0.349,1.28,1.463,1.678,2.098c0.44,0.718,0.682,1.491,1.007,2.266   C85.067,32.456,85.791,33.846,85.272,35.122C85.257,35.158,85.641,34.216,85.272,35.122z"></path><path class="st0" d="M36.999,75.412c-0.08-0.36-0.14-0.657-0.231-1c-0.105-0.396-0.42-0.87-0.441-1.266   c-0.023-0.451-0.586-1.419-0.839-1.762c-1.076-1.467-3.15-2.492-4.892-2.79c-0.78-0.134-1.062-1.616-1.484-2.16   c-0.267-0.339-0.684-0.635-1.032-0.886c-0.094-0.068-1.106-0.645-1.126-0.743c-0.029-0.137-1.311-0.708-1.533-0.72   c-0.231-0.012-0.753-0.323-0.839-0.419c-0.058-0.072-0.39-0.114-0.496-0.088c-0.665,0.158-1.269-0.021-1.937,0.004   c-0.331,0.013-0.663,0.186-0.964,0.17c-0.42-0.022-1.002,0.029-1.415,0.102c-0.532,0.094-1.113,0.158-1.514,0.43   c-0.885,0.601-1.442,1.327-2.191,2.068c-0.408,0.404-0.842,0.781-1.278,1.153c-0.451,0.385-0.485,1.172-1.083,1.363   c-0.723,0.231-1.425,0.47-2.095,0.762c-0.312,0.136-0.766,0.521-0.83,0.868c-0.021,0.112-0.323,0.749-0.416,0.781   c-0.358,0.122-0.123,1.521-0.341,1.763c-0.094,0.104,0.018,0.798-0.04,1.027c-0.128,0.526-0.161,0.778,0,1.342   c0.407,1.414,1.165,2.789,2.433,3.608c0.384,0.248,0.978,0.279,1.259,0.671c0.161,0.162,0.322,0.73,0.424,0.966   c0.1,0.231,0.109,0.7,0.248,0.88c0.222,0.296,0.591,0.748,0.875,1.015c0.106,0.099,0.886,0.554,0.888,0.535   c-0.006,0.048,0.563,0.178,0.612,0.337c0.131,0.424,1.558,0.323,1.795,0.676c0.14,0.209,0.897,0.115,1.12,0.164   c0.62,0.135,1.296,0.09,1.927,0.104c1.164,0.025,1.959,0.177,3.019-0.313c0.414-0.191,0.788-0.341,1.175-0.588   c0.203-0.128,0.615-0.255,0.754-0.417c0.363-0.422,1.167-0.778,1.723-0.746c0.61,0.035,1.047-0.022,1.635-0.096   c0.281-0.035,0.559,0.028,0.839,0c0.251-0.189,0.547-0.303,0.845-0.395c0.697-0.215,2.252-0.565,2.679-1.115   c0.06-0.071,0.256-0.03,0.336-0.084c0.21-0.139,0.464-0.388,0.671-0.587c0.407-0.389,0.814-0.83,1.198-1.243   c0.203-0.218,0.404-0.861,0.61-0.997C37.526,77.467,37.093,75.837,36.999,75.412z M31.629,76.754   c-0.286,0.59-1.01,0.801-1.594,1.007c-0.198,0.064-0.386,0.279-0.617,0.309c-0.371,0.049-1.223,0.196-1.563,0.076   c-0.611-0.216-1.613-0.437-2.332-0.423c-0.486,0.009-0.769,0.43-1.026,0.792c-0.412,0.584-0.65,0.955-1.259,1.343   c-1.523,0.973-3.337,0.51-4.343-0.979c-0.35-0.518-0.19-1.257-0.229-1.842c-0.052-0.785-0.787-0.501-1.343-0.504   c-0.636-0.003-1.445-0.655-1.946-1.03c-0.494-0.37-0.6-1.203-0.62-1.81c-0.03-0.906,0.13-1.588,0.801-2.094   c0.415-0.314,0.938-0.125,1.387-0.3c0.355-0.139,0.643-0.533,0.839-0.839c0.298-0.466,0.901-2.059,1.594-2.098   c0.468-0.025,1.03-0.689,1.51-0.839c0.47-0.147,0.82-0.028,1.259,0c0.868,0.057,2.181,0.217,2.644,1.122   c0.282,0.551,0.473,1.153,0.657,1.742c0.18,0.578,0.525,0.959,0.765,1.479c0.311,0.674,1.788,0.635,2.379,0.631   c0.533-0.003,2.323,0.455,2.365,1.235c0.021,0.386,0.358,0.871,0.507,1.225C31.712,75.547,31.925,76.146,31.629,76.754z"></path></g></svg>