<svg height='300px' width='300px'  fill="#FFFFFF" xmlns="http://www.w3.org/2000/svg" xmlns:xlink="http://www.w3.org/1999/xlink" version="1.1" x="0px" y="0px" viewBox="0 0 100 100" enable-background="new 0 0 100 100" xml:space="preserve"><path fill-rule="evenodd" clip-rule="evenodd" d="M50.3,11.4c0,0.2,0,0.4,0,0.6c0.1,0.2,0.3,0.3,0.3,0.7c0,0.3-0.1,0.5-0.1,0.7  c-0.1,0.7,0.1,1.4-0.2,1.7c0.1,0.2,0.1,0.3,0.1,0.7c0,0,0,0.2,0,0.2c0.1,0.1,0,0.1,0,0.4c0,0.2-0.1,0.4,0,0.7c0,0,0.2,0.3,0.1,0.4  c-0.1,0.1,0,0,0,0.2c0,0.3,0,0.6,0,0.9c0,0.5,0,1,0.1,1.5c0,0.4,0,1.1,0,1.7c0,0.1,0,0.1,0,0.2c0,0,0.1,0.1,0.1,0.1  c0,0.1-0.1,0.1-0.1,0.2c0,0.1,0.1,0.2,0.1,0.3c0,0.1,0,0.2,0,0.3c0,0.2,0.1,0.4,0.1,0.6c0,0.1-0.1,0.1-0.1,0.3c0,0,0.1,0,0.1,0.1  c0,0.1-0.1,0.4-0.1,0.5c0,0.1,0,0.2,0,0.3c0,0-0.2,0.3-0.1,0.4c0,0,0.1,0,0.1,0c0,0.1-0.1,0.1-0.1,0.1c0,0.2,0,0.3,0,0.7  c0,0,0.1,0,0.1,0.1c0,0-0.1,0-0.1,0.1c0,0.5,0,1,0,1.4c0,0-0.2,0-0.1,0.1c0.1,0,0.1,0.1,0.1,0.2c-0.1,0-0.1,0.1-0.1,0.2  c0,0.3-0.3,0.3-0.4,0.4c0.1,0.5-0.3,0.6-0.2,0.9c-0.3,0-0.5-0.1-0.5-0.2c-0.2,0.1-0.3,0.2-0.5,0.2c-0.1,0-0.3,0-0.4,0  c-0.1,0-0.2,0.1-0.4,0.1c0,0-0.1-0.1-0.1-0.1c-0.1,0-0.2,0.1-0.2,0.1c-0.1,0-0.2-0.1-0.5-0.1c0,0,0,0.1-0.1,0.1c0,0,0-0.1-0.1-0.1  c-0.2,0-0.5,0-0.7,0c-0.3-0.2-0.5-0.4-0.8-0.6c-0.1-0.1-0.2-0.3-0.3-0.4c-0.1-0.1-0.2,0-0.3-0.1c0-0.1,0-0.2-0.1-0.2  c0.1-0.1-0.1-0.3-0.1-0.3c0-0.3,0.1-0.5,0.2-0.8c0-0.1,0-0.1,0-0.2c0,0-0.1-0.2-0.1-0.3c0.1-0.1,0.1-0.2,0.1-0.5  c0-0.2,0.1-0.4,0.1-0.5c0,0-0.1-0.1-0.1-0.1c0.1-0.1,0.1-0.1,0.1-0.3c0-0.1,0.1-0.2,0.1-0.3c0,0-0.1,0-0.1-0.1c0,0,0-1.1,0.1-1.2  c0.2-0.1-0.2-0.2,0-0.4c0.1-0.1,0.1-0.2,0-0.5c0-0.1,0-0.2,0-0.3c0-0.1-0.1-0.1-0.1-0.2c0,0,0.1-0.1,0.1-0.2c0,0,0-0.2,0-0.2  c-0.1-0.1,0,0,0-0.2c0,0-0.1,0-0.1-0.1c0-0.2,0.1-0.2,0.1-0.3c0,0-0.1,0-0.1-0.1c0-0.1,0.1-0.1,0.1-0.3c0-0.1-0.1-0.1-0.1-0.2  c0-0.6,0.1-1,0-1.6c0-0.1,0-0.1,0-0.2c0,0-0.1-0.1-0.1-0.1c0-0.1,0.1-0.1,0.1-0.2c0,0-0.1-0.1-0.1-0.1c0-0.1,0-0.3,0-0.5  c0-0.3-0.2-0.8,0.1-1.3c-0.3-0.2,0-0.5,0-0.9c0,0-0.1-0.1-0.1-0.1c0-0.1,0-0.3,0-0.6c0-0.3-0.1-0.6,0-1.1c0,0,0.2,0,0.1-0.1  c-0.1-0.1-0.1-0.1-0.1-0.3c0-0.4-0.1-0.7,0-0.9c0-0.1,0-0.4,0.3-0.4c0-0.3,0.1-0.6,0.2-0.8c0.1,0,0.2,0,0.3,0c0.1,0,0.2-0.1,0.3-0.2  c0.2-0.1,0.9-0.2,1.4-0.2c0,0,0-0.1,0.1-0.1c0,0,0,0.1,0.1,0.1c0.2,0,0.2,0,0.5-0.1c0.2,0,0.3-0.1,0.6,0c0.1,0,0.5,0.2,0.7,0.3  c0,0,0.2,0.1,0.3,0.1C49.9,11.2,50.1,11.3,50.3,11.4z"></path><path fill-rule="evenodd" clip-rule="evenodd" d="M73.9,15.2c0.1,0.3-0.2,0.1-0.3,0.3c0,0,0,0.2,0,0.2c-0.1,0.1-0.1,0.4-0.3,0.4  c0,0.4-0.2,0.6-0.2,1c-0.1,0-0.2,0-0.4,0c0,0.3-0.1,0.4-0.2,0.6c-0.1,0.2-0.1,0.1-0.2,0.4c0,0.1-0.1,0.1-0.1,0.1  c-0.1,0.2-0.1,0.4-0.1,0.6c0,0-0.1,0-0.1,0.1C71.9,19,72,19,72,19.3c-0.2,0.1-0.2,0.3-0.3,0.5c-0.2,0.4-0.3,0.7-0.5,1.3  c0,0.1-0.1,0.2-0.2,0.4c0,0.1,0,0.1,0,0.2c0,0.1-0.1,0.2-0.1,0.3c0,0.1-0.1,0.2-0.1,0.3c0,0.1-0.1,0.2-0.1,0.3  c0,0.1-0.1,0.2-0.1,0.3c0,0.1-0.1,0.2-0.1,0.3c0,0.1-0.1,0.1-0.1,0.1c-0.1,0.3-0.1,0.5-0.2,0.7c-0.1,0.1-0.1,0.2-0.2,0.3  c-0.1,0.1-0.1,0.4-0.4,0.3c0.2,0.3-0.2,0.6,0,0.9c0.1,0.3-0.2,0.2-0.2,0.4c0,0.2-0.3,0.7-0.4,1c-0.1,0.2-0.2,0.4-0.2,0.6  c0,0,0,0.1,0,0.2c0,0-0.2,0-0.2,0.1c0,0,0,0.1,0,0.2c0,0-0.1,0.3-0.1,0.3c-0.1,0.1-0.1,0.3-0.2,0.5c-0.1,0.1-0.2,0.2-0.2,0.4  c-0.1,0.4-0.1,0.9-0.3,1.2c0,0,0,0.2,0,0.2c-0.1,0.1-0.2,0.2-0.3,0.4c-0.1,0.1-0.4,0.5-0.4,0.8c-0.2-0.1-0.2,0.2-0.3,0.2  c-0.1,0-0.3-0.2-0.3,0c-0.1,0-0.2-0.1-0.3,0c0,0,0,0.2,0,0.2c-0.1,0-0.4-0.1-0.4,0.1c-0.7-0.4-1.7-0.1-2.4-0.4c0,0-0.1-0.1-0.1-0.1  c0,0-0.2-0.1-0.3-0.1c0,0,0-0.1,0-0.1c-0.1,0-0.2-0.1-0.3-0.1c-0.2-0.2-0.5-0.6-0.6-0.9c-0.1-0.2-0.2-0.2-0.2-0.5c0,0,0.2,0,0.1-0.1  c-0.1-0.1-0.1-0.2,0-0.5c0,0,0-0.2,0-0.2c0,0,0.1,0,0.1,0c0,0,0-0.2,0-0.2c0.2-0.1,0.2-0.5,0.3-0.8c0,0,0.1,0,0.1-0.1  c0-0.3,0.1-0.2,0.2-0.5c0,0,0-0.2,0-0.2c0.1-0.1,0.2-0.4,0.3-0.6c0,0,0.1-0.1,0.1-0.1c0.1-0.2,0.1-0.3,0.1-0.5  c0.1-0.2,0.3-0.4,0.4-0.7c0.1-0.2,0.2-0.5,0.3-0.7c0,0,0-0.2,0-0.2c0,0,0.1,0,0.1,0c0,0,0-0.2,0-0.2c0.1-0.1,0.2-0.5,0.5-0.6  c-0.1-0.4,0.2-0.8,0.4-1.1c0,0,0-0.2,0-0.2c0.1-0.1,0.2-0.4,0.3-0.6c0,0,0.1,0,0.1-0.1c0-0.4,0.2-0.8,0.4-1.1c0,0,0.1-0.1,0.1-0.1  c0.1-0.2,0.1-0.4,0.1-0.6c0.1-0.2,0.2-0.5,0.3-0.7c0,0,0-0.2,0-0.2c0,0,0.1,0,0.1,0c0.1-0.3,0.2-0.7,0.3-1c0,0,0.1,0,0.1-0.1  c0.1-0.2,0.1-0.2,0.1-0.4c0.1-0.2,0.1-0.4,0.1-0.5c0-0.1,0.2,0,0.2-0.2c0,0-0.1-0.1-0.1-0.2c0,0,0.1,0,0.1-0.1  c0-0.2,0.2-0.3,0.3-0.5c0.1-0.2,0-0.6,0.3-0.6c0-0.4,0.1-0.6,0.2-0.8c0.1-0.2,0.3-0.5,0.4-0.8c0.3-0.2,0.7-0.4,1-0.6  c0.1,0,0.2,0,0.3,0c0,0,0.1-0.1,0.1-0.1c0.1,0,0.1,0.1,0.2,0.1c0.1,0,0.3-0.1,0.5-0.2c0,0,0.1,0.1,0.2,0.1c0,0,0-0.1,0.1-0.1  c0.3,0,0.4,0.1,0.5,0.1c0.1,0,0.2,0,0.3-0.1c0.1,0,0.1-0.1,0.2-0.1c0.2,0,0.2,0.2,0.4,0.3c0.7,0,0.6,0.7,1.2,0.8  c-0.1,0.2,0.1,0.2,0.1,0.3C73.8,14.5,73.9,14.8,73.9,15.2z"></path><path fill-rule="evenodd" clip-rule="evenodd" d="M27.8,16.3c0.2-0.1,0.4,0.1,0.6,0.2c0.2,0.1,0.5,1,0.8,1.3c0,0,0,0.2,0.1,0.2  c0,0,0.1,0,0.1,0c0.1,0.1,0,0.1,0,0.2c0,0.2,0.1,0.1,0.1,0.2c0.2,0.3,0.4,0.5,0.5,0.8c0.1,0.1,0.1,0.3,0.3,0.5  c0.1,0.1,0.2,0.2,0.3,0.3c0.2,0.3,0.3,0.7,0.4,1c0.1,0.2,0.3,0.4,0.4,0.6c0,0-0.1,0.1,0,0.2c0.1,0.2,0.2,0.1,0.3,0.3  c0.1,0.1,0,0.3,0.1,0.4c0,0.1,0.2,0.1,0.3,0.3c0.2,0.4,0.3,1,0.6,1.3c0,0,0.2,0.1,0.2,0.1c0.1,0.1,0.1,0.5,0.3,0.5  c-0.1,0.6,0.8,0.8,0.7,1.5c0.2,0.1,0.4,0.4,0.6,0.6c0.1,0.1,0.1,0.1,0.2,0.2c0.1,0.1,0.4,0.3,0.3,0.6c0,0.1,0.1,0,0.2,0  c0,0,0,0.2,0.1,0.2c0.1,0,0.1,0.1,0.3,0.3c0.1,0.1,0.2,0.1,0.3,0.2c0.1,0.1,0.1,0.2,0.2,0.3c0,0,0.1,0,0.1,0.1  c0.1,0.1,0.3,0.3,0.4,0.4c0,0,0.1,0,0.1,0.1c0,0.1,0.2,0.2,0.3,0.3c0.2,0.1,0.3,0.5,0.5,0.9c0.1,0.1,0.2,0.2,0.3,0.3  c0.1,0.1,0.1,0.3,0,0.5c0,0.2,0,0.2-0.1,0.3c0,0.1-0.1,0.1-0.1,0.1c-0.1,0.1-0.2,0.2-0.2,0.3c0,0.1-0.5,0.4-0.7,0.5  c-0.1,0-0.2,0-0.3,0.1c-0.1,0.1-0.5,0.3-0.7,0.4c0,0-0.3,0.1-0.4,0.1c-0.1-0.1-0.1,0-0.3,0.1c-0.5,0.1-1.1,0.1-1.9,0.2  c-0.1-0.1-0.3-0.2-0.4-0.3c-0.2-0.1-0.3-0.1-0.4-0.2c0,0,0-0.2-0.1-0.2c0,0-0.2,0-0.2,0c0,0,0-0.2-0.1-0.2c0,0-0.1,0-0.1,0  c0,0,0-0.2-0.1-0.2c-0.1-0.1-0.1-0.3-0.2-0.3c0,0-0.1,0-0.1,0c-0.1-0.1-0.2-0.3-0.3-0.5c-0.1-0.1-0.2-0.2-0.3-0.2  c-0.2-0.1,0-0.1-0.1-0.3c0,0-0.1,0-0.1-0.1c-0.1-0.1-0.1-0.2-0.2-0.3c0,0,0.1-0.1,0.1-0.1c0,0-0.2,0-0.2,0c-0.1-0.1-0.1-0.3-0.2-0.4  c0,0-0.1,0-0.1-0.1c0,0,0-0.1,0-0.1c-0.1-0.1-0.1-0.3-0.3-0.5c0,0-0.1,0-0.1-0.1c0,0,0-0.1,0-0.1c-0.1-0.1-0.1-0.2-0.2-0.3  c-0.1-0.1-0.1-0.2-0.2-0.3c0-0.1-0.1-0.1-0.1-0.1c-0.1-0.2-0.1-0.5-0.4-0.7c0.1-0.3,0-0.4-0.1-0.6c0-0.1-0.2-0.3-0.2-0.3  c-0.1-0.1,0,0-0.1-0.2c0,0-0.1,0-0.1-0.1c-0.1-0.2-0.3-0.7-0.4-0.9c-0.1-0.1-0.2-0.3-0.3-0.4c-0.2-0.3-0.2-0.4-0.4-0.7  c0,0,0-0.2-0.1-0.2c0,0-0.1,0-0.1,0c-0.1-0.2-0.1-0.3-0.2-0.4c-0.2-0.3-0.3-0.7-0.5-1c0-0.1-0.1-0.1-0.2-0.2  c-0.1-0.3-0.4-0.8-0.7-1.2c-0.1-0.1-0.2-0.4-0.4-0.4c0-0.3-0.2-0.6-0.3-0.8c-0.3-0.4-0.7-0.5-0.9-1.2c0-0.1-0.1-0.1-0.1-0.2  c0-0.1,0.1-0.1,0.1-0.1c0-0.1-0.1-0.5-0.1-0.7c0-0.1,0.3-0.5,0.4-0.7c0.1-0.2,0.1-0.4,0.2-0.6c0,0,0.2,0,0.2-0.1  c0-0.1,0.2-0.1,0.3-0.2c0,0,0-0.1,0.1-0.1c0,0,0,0.1,0.1,0.1c0.1,0,0.1,0,0.2-0.1c0.1,0,0.1-0.2,0.2-0.2c0.1,0,0.2,0,0.5-0.2  c0.1,0,0.5-0.3,0.7-0.4C26.7,15.8,27.6,15.9,27.8,16.3z"></path><path fill-rule="evenodd" clip-rule="evenodd" d="M25.7,40.9c0.1,0.3,0,0.4-0.1,0.7c0.1,0.3,0.2,0.5,0.1,0.9  c-0.1,0.4-0.7,0.3-0.9,0.7c-0.3-0.1-0.6,0.1-0.9,0.1c-0.2,0-0.3,0-0.5,0.1c-0.1,0-0.2,0.1-0.4,0.2c-0.1,0-0.3,0-0.4,0  c-0.1,0-0.1,0.1-0.3,0.1c-0.1,0-0.2-0.1-0.5-0.1c0,0,0-0.1-0.1-0.1c-0.1,0-0.2,0.1-0.3,0.1c-0.1,0-0.3-0.2-0.4-0.2  c-0.3-0.1-0.5-0.1-0.8-0.2c0,0,0-0.1-0.1-0.1c-0.1,0-0.5-0.2-0.6-0.2c-0.1,0-0.2-0.1-0.4-0.1c-0.2-0.1-0.3-0.1-0.5-0.2  c-0.4-0.2-0.7-0.4-1.1-0.5c0,0-0.2,0-0.2,0c0-0.1-0.3-0.2-0.4-0.3c-0.3-0.1-0.5-0.3-0.8-0.4c-0.1-0.1-0.3-0.1-0.5-0.2  c0,0,0-0.1-0.1-0.1c0,0-0.2-0.1-0.3-0.1c-0.1,0-0.1-0.2-0.2-0.2c0,0-0.2,0-0.2,0c-0.1-0.1-0.1-0.1-0.2-0.2c0,0-0.2,0-0.2,0  c-0.1-0.1-0.2-0.2-0.4-0.3c0,0-0.1-0.2-0.2-0.2c-0.1,0-0.2,0-0.3,0c-0.1,0-0.1-0.1-0.2-0.2c0,0-0.3-0.1-0.4-0.1c0,0,0-0.1,0-0.1  c0,0-0.2,0-0.2,0c-0.1-0.1-0.1-0.1-0.2-0.1c0,0-0.3-0.1-0.3-0.1c-0.1-0.1-0.2-0.2-0.3-0.2c0,0-0.2,0-0.2,0c-0.1-0.1-0.5-0.4-0.8-0.5  c-0.3-0.2-0.6-0.3-0.9-0.4c-0.2-0.1-0.4-0.2-0.6-0.3c0,0-0.2,0-0.2,0c-0.1-0.1-0.1-0.1-0.2-0.1c0,0-0.3-0.1-0.3-0.1c0,0,0-0.1,0-0.1  c-0.1-0.1-0.3-0.1-0.5-0.1c0,0-0.1-0.2-0.2-0.2c-0.1,0-0.2,0-0.3,0c0,0,0-0.1-0.1-0.1c-0.1,0-0.2,0-0.4,0c-0.2-0.2-0.2-0.4-0.4-0.6  c-0.2,0-0.3-0.2-0.5-0.1C7,35.9,6.7,36,6.6,35.9c-0.1-0.1,0-0.2-0.1-0.3c0,0-0.2,0-0.2,0c-0.1-0.1-0.2-0.2-0.4-0.3  c0.2-0.1-0.3-0.6,0-0.7c0.1-0.1,0.1-0.1,0.2-0.2c0.1-0.1,0.2-0.2,0.2-0.3c0.1-0.2,0.1-0.1,0.3-0.4c0-0.2,0.2-0.2,0.1-0.5  c0.2,0,0.4,0,0.6-0.1c0.2-0.1,1,0,1.5-0.1c0.2,0,0.4-0.1,0.6-0.1c0.1,0,0.3-0.1,0.3,0c0.5,0,0.6,0.2,1.1,0.2c0.1,0,0.2,0.2,0.3,0.3  c0,0,0.2,0,0.2,0c0,0,0,0.1,0,0.1c0,0,0.2,0,0.2,0c0,0,0,0.1,0,0.1c0.3,0.2,0.5,0.2,0.8,0.3c0.1,0,0,0.2,0.1,0.2c0,0,0.2,0,0.2,0  c0,0,0,0.1,0,0.1c0,0,0.2,0,0.2,0c0,0,0,0.1,0,0.1c0,0,0.2,0,0.2,0c0.1,0.1,0.2,0.1,0.5,0.2c0,0,0,0.1,0.1,0.1  c0.1,0,0.2,0.1,0.2,0.2c0.2,0,0.4,0,0.6,0c0.1,0.2,0.4,0.3,0.5,0.5c0.1-0.1,0.3,0.1,0.3,0.1c0.1,0,0.1-0.1,0.2-0.1  c0,0,0,0.2,0.1,0.2c0.1,0,0.2,0,0.3,0c0,0,0,0.1,0.1,0.1c0.1,0,0.3,0.3,0.7,0.2c0,0.2,0.2,0.1,0.4,0.2c0,0,0,0.2,0.1,0.2  c0,0,0.2,0,0.2,0c0.1,0.1,0.4,0.1,0.6,0.2c0,0,0,0.1,0.1,0.1c0,0,0.1,0.1,0.2,0.1c0.2,0.1,0.5,0.3,0.6,0.5c0.3-0.1,0.3,0,0.6,0  c0.1,0.1,0.2,0.2,0.4,0.3c0.2,0.1,0.5,0.1,0.7,0.2c0,0,0,0.1,0.1,0.1c0.1,0,0.5,0.2,0.7,0.3c0,0,0.2,0,0.2,0c0,0,0,0.1,0,0.1  c0,0,0.2,0,0.2,0c0.1,0.2,0.1,0.1,0.5,0.2c0,0,0.2,0,0.2,0c0,0.1,0.2,0.2,0.4,0.3c0.3-0.1,0.6,0.2,0.8,0.2c0.2,0.1,0.2,0,0.5,0.1  c0.2,0.1,0.4,0.2,0.5,0.3c0.2,0.1,0.4,0.1,0.5,0.2c0,0,0,0.1,0.1,0.1c0.2,0,0.1,0.4,0.4,0.4c0.1,0.1,0.2,0.2,0.4,0.2  C25.5,40.8,25.6,40.9,25.7,40.9z"></path><path fill-rule="evenodd" clip-rule="evenodd" d="M94.2,56c0.1,0.2,0.2,0.5,0.1,0.8c0.3-0.1,0.1,0.3,0.2,0.4c0,0,0.2,0,0.2,0  c0.1,0.1,0,0.2,0.1,0.3c0,0,0.1,0.1,0.1,0.2c-0.1,0.6-0.4,0.9-0.8,1.2c-0.1,0,0,0.1-0.1,0.1c-0.2,0-0.1,0-0.2,0.1  c-0.1,0-0.3,0-0.4,0.1c-0.2,0.1-0.2,0.4-0.5,0.4c0,0.1-0.1,0.1-0.2,0.1c-0.1,0-0.4,0.1-0.7,0c0,0-0.2,0-0.2,0c-0.1,0.1,0,0-0.2,0  c0,0-0.1,0.2-0.1,0.2c-0.1,0-0.2,0-0.3,0c-0.4,0.1-0.9,0-1.5,0c0,0-0.1-0.1-0.2-0.1c0,0,0,0.1-0.1,0.1c-0.1,0-0.3,0-0.5,0  c0,0,0-0.2-0.1-0.1c-0.1,0.1-0.4,0.1-0.7,0c0,0,0-0.1-0.1-0.1c-0.1,0-0.4,0.1-0.4,0.1c-0.1-0.1-0.1-0.1-0.2-0.1  c-0.5-0.1-1-0.2-1.6-0.3c-0.3-0.1-0.6-0.1-0.8-0.2c0,0,0-0.1-0.1-0.1c-0.2,0-0.5,0-0.7-0.1c0,0,0-0.1-0.1-0.1c-0.1,0-0.3,0-0.4,0  c0,0,0-0.2-0.1-0.1c-0.1,0.1,0,0-0.1,0c-0.3-0.1-0.6-0.1-0.8-0.1c-0.5-0.1-1.1-0.2-1.6-0.2c-0.3,0-0.6-0.1-0.9-0.2  c0,0-0.1,0.1-0.1,0.1c-0.1,0-0.2,0-0.3,0c0,0-0.2-0.2-0.3-0.1c-0.2,0.1-0.5,0-0.8-0.1c-0.3,0-0.7,0-0.9-0.1c0,0,0-0.1-0.1-0.1  c-0.2,0-0.1-0.1-0.2-0.1c-0.2-0.1-0.5-0.3-0.7-0.4c0,0,0-0.1-0.1-0.1c-0.1,0-0.3-0.2-0.4-0.3c-0.1-0.1,0-0.2-0.1-0.3  c0-0.1-0.1-0.1-0.2-0.2c0-0.3,0.1-0.7,0.2-1c0-0.1,0.1-0.3,0.1-0.5c0,0,0.2,0,0.2-0.1c0,0,0-0.2,0-0.2c0.2-0.2,0.6-0.3,1.1-0.5  c0.2-0.1,0.3-0.1,0.5-0.2c0.2,0,0.3,0,0.5-0.1c0.1,0,0.1-0.2,0.2-0.2c0.1,0,0.3,0,0.4,0c0.3,0,0.8,0,1.3,0c0.1,0,0.1,0.1,0.2,0.1  c0,0,0-0.1,0.1-0.1c0.2,0,0.3,0,0.4-0.1c0.1-0.1,0.3,0.1,0.5,0.1c0,0,0-0.1,0.1-0.1c0.3,0,0.3,0.1,0.6,0.1c0.1,0,0.1,0,0.2,0  c0,0,0.1,0.1,0.1,0.1c0.2,0,0.3-0.1,0.7,0c0.5,0,1,0.1,1.5,0.2c0.3,0.1,0.6,0.2,0.9,0.3c0,0,0,0.2,0.1,0.1c0.1-0.1,0.3-0.1,0.5,0  c0,0,0,0.2,0.1,0.1c0.1-0.2,0.3,0,0.6,0c0,0,0.2,0,0.2,0c0.1-0.1,0.1,0,0.2,0c0,0,0.2,0,0.2,0c0.1,0.1,0,0,0.2,0  c0,0,0.7,0.5,0.9,0.3c0.1-0.1,0.1,0,0.2,0c0,0,0.2,0,0.2,0c0.1,0.2,0.4,0,0.8,0.1c0.1,0,0.1,0.1,0.2,0.1c0.2,0,0.3-0.1,0.7,0  c0.5,0,0.9,0,1.4,0c0.1,0,0.1,0.1,0.1,0.1c0.1,0,0.2-0.1,0.5-0.1C93.2,55.6,93.6,55.8,94.2,56z"></path><path fill-rule="evenodd" clip-rule="evenodd" d="M6,58.6c0.5-0.2,0.9-0.5,1.3-0.8c0.4,0,0.7,0.1,1,0.1c0.4,0,0.6-0.2,1-0.3  c0.6,0.2,1.1-0.1,1.6-0.2c0.1,0,0.4,0.1,0.4,0.1c0,0,0.1-0.2,0.3-0.3c0.3,0,0.6,0,0.8,0.1c0.3-0.1,0.5-0.2,0.9-0.2  c0.2,0,0.4,0.1,0.6,0c0,0,0.1-0.2,0.1-0.2c0.2-0.1,0.5,0,0.7,0c0.4-0.1,0.7-0.2,1-0.3c0,0,0.2,0,0.2,0c0,0,0-0.1,0-0.1  c0.4-0.1,0.8,0,1.2-0.1c0,0,0.2,0,0.2,0c0,0,0-0.2,0-0.2c0.1,0,0.3,0.1,0.4,0c0.1,0,0.1-0.1,0.2-0.2c0,0,0.2,0,0.2,0  c0.1-0.1,0.2,0,0.6-0.1c0,0,0-0.1,0.1-0.1c0,0,0.2-0.1,0.3-0.1c0.6-0.1,0.7-0.3,1.5-0.2c0.1,0,0.1,0.1,0.2,0.1c0,0,0-0.1,0.1-0.1  c0.1,0,0.2,0.1,0.3,0.1c0.2,0,0.5,0.1,0.7,0.1c0.2,0.1,0.5,0.3,0.7,0.4c0.3,0.2,0.5,0.3,0.5,0.5c0,0.1,0,0.1,0,0.2  c0,0.1,0.2,0.5-0.1,0.7c0,0.3-0.2,0.3-0.1,0.6c-0.4,0.1-0.6,0.5-1.2,0.5c-0.1,0.3-0.6,0.3-0.9,0.4c-0.1,0-0.1,0.1-0.2,0.2  c0,0-0.2,0-0.2,0c-0.1,0.1-0.2,0.1-0.5,0.2c0,0-0.2,0.2-0.2,0.2c-0.2,0.1-0.3,0-0.6,0.1c0,0,0,0.1-0.1,0.1c0,0-0.4,0.1-0.6,0.1  c0,0-0.2,0-0.2,0c-0.2,0.2-0.2,0.1-0.6,0.2c-0.1,0-0.2,0.1-0.3,0.1c-0.3,0-0.6,0.1-0.9,0.1c-0.1,0-0.1,0-0.2,0  c-0.1,0-0.2,0.1-0.4,0.2c-0.1,0-0.1,0-0.2,0c-0.1,0-0.1,0.1-0.1,0.1c-0.4,0.1-0.7,0-1.1,0c-0.2,0-0.2,0.1-0.4,0.2  c-0.1,0-0.4-0.1-0.5,0c-0.1,0.1-0.2,0.1-0.5,0.2c-0.3,0.1-0.8,0.1-1.2,0.2c-0.3,0-0.6,0-0.9,0c0,0,0,0.1-0.1,0.1  c-0.1,0-0.2,0.1-0.3,0.1c-0.1,0-0.3-0.1-0.4,0c0,0,0,0.1,0,0.1c-0.1,0-0.3,0-0.5,0.1c-0.1,0-0.2,0-0.4,0.1c0,0-0.1-0.1-0.2-0.1  c0,0,0,0.1-0.1,0.1c-0.1,0-0.2,0-0.5,0.1c-0.2,0-0.4-0.1-0.6,0c-0.2,0-0.2,0.1-0.4,0.1c-0.2,0-0.2-0.1-0.3-0.1  c-0.1,0-0.1,0.1-0.1,0.1c-0.1,0-0.1-0.1-0.1-0.1c-0.3,0-0.5,0-0.7-0.1c0,0,0-0.1-0.1-0.1c-0.2,0-0.4-0.1-0.5-0.2  c-0.1,0-0.1-0.2-0.2-0.2c0,0-0.2,0-0.2,0c-0.1-0.1-0.2-0.2-0.3-0.4c0-0.2,0-0.5,0-0.6c0.1-0.1,0.2-0.2,0.3-0.4  c0.1-0.2,0.1-0.3,0.2-0.4c0,0,0.1,0,0.1-0.1C5.9,58.8,5.9,58.8,6,58.6z"></path><path fill-rule="evenodd" clip-rule="evenodd" d="M85.3,77.8c0.1,0.4-0.2,0.3-0.3,0.4c0,0.5-0.2,0.6-0.2,0.9  c-0.3,0.1-0.5,0.2-0.7,0.4c-0.2,0-0.4,0-0.6,0.1c-0.2,0.1-0.4,0.2-0.6,0.3c-0.1,0,0,0.1-0.1,0.1c-0.3,0-0.1,0.2-0.4,0.3  c-0.5,0-0.8-0.3-1.2-0.5c-0.2-0.1-0.5-0.2-0.7-0.3c-0.2-0.1-0.4-0.1-0.5-0.2c0,0,0-0.1-0.1-0.1c0,0-0.2-0.1-0.3-0.1  c-0.1,0-0.1-0.1-0.1-0.1c-0.2-0.1-0.5-0.2-0.7-0.3c0,0,0-0.1-0.1-0.1c-0.2,0-0.2-0.2-0.4-0.2c-0.1,0-0.1,0-0.2,0c0,0,0-0.2-0.1-0.2  c-0.2-0.1-0.4,0-0.6-0.1c0,0,0-0.2-0.1-0.2c-0.2-0.1-0.4,0-0.6-0.1c-0.1,0-0.1-0.2-0.2-0.2c0,0-0.2,0-0.2,0c0,0,0-0.1,0-0.1  c0,0-0.2,0-0.2,0c-0.2-0.2-0.5-0.4-0.8-0.5c0,0-0.2,0-0.2,0c0,0,0-0.1,0-0.1c0,0-0.4-0.1-0.4-0.2c0-0.1-0.2-0.2-0.4-0.3  c-0.1-0.1-0.3-0.1-0.5-0.2c0,0,0-0.1-0.1-0.1c-0.2,0-0.3-0.4-0.5-0.4c0,0-0.1,0-0.1,0c-0.1-0.1-0.2-0.2-0.3-0.3  c-0.1,0-0.2-0.1-0.3-0.1c0,0,0-0.2,0-0.2c0,0-0.1,0-0.1,0c-0.2-0.2-0.4-0.4-0.6-0.6c-0.1-0.1-0.3-0.1-0.3-0.2c0,0-0.3-0.3-0.3-0.4  c-0.1-0.1-0.3-0.1-0.4-0.2c-0.1-0.5-0.3-0.9-0.2-1.3c0,0,0-0.2,0-0.2c0,0,0.1,0,0.1,0c0,0,0-0.2,0-0.2c0,0,0.1,0,0.1,0  c0.1-0.1,0-0.3,0.1-0.4c0.1-0.1,0.2-0.1,0.3-0.2c0.2-0.1,0.2-0.3,0.5-0.3c0,0,0.2,0,0.2,0c0,0,0-0.1,0-0.1c0.1-0.1,0.2-0.2,0.3-0.3  c0.1-0.1,0.6,0.1,0.7,0c0,0,0-0.1,0-0.1c0,0,0.2,0,0.2,0c0,0,0-0.1,0-0.1c0.2,0,0.2,0.1,0.4,0.1c0,0,0-0.1,0.1-0.1  c0.1,0,0.1-0.1,0.2-0.1c0.2,0,0.2,0.1,0.3,0.1c0,0,0-0.1,0.1-0.1c0.1,0,0.2,0.1,0.4,0.1c0.2,0,0.3,0,0.4,0.1  c0.1,0.1,0.2,0.1,0.4,0.1c0.1,0.3,0.5,0.4,0.7,0.7c0.1,0.1,0.1,0.2,0.2,0.3c0.1,0.1,0.2,0,0.4,0.1c0.1,0,0.1,0.2,0.2,0.2  c0.2,0.1,0.4,0.1,0.4,0.4c0.3,0,0.5,0.1,0.6,0.2c0.1,0.1,0.5,0.1,0.4,0.3c0.2-0.1,0.2,0.1,0.3,0.1c0,0,0.2,0,0.2,0  c0.1,0.1,0.1,0,0.3,0.1c0,0,0,0.2,0.1,0.2c0.4,0.2,0.8,0.4,1.3,0.6c0,0,0.2,0,0.2,0c0,0,0,0.1,0,0.1c0,0,0.2,0,0.2,0  c0.1,0.1,0.3,0.1,0.4,0.2c0.1,0.1,0,0.1,0.1,0.2c0,0,0.2,0,0.2,0c0,0.1,0.2,0.1,0.5,0.2c0,0,0,0.1,0.1,0.1c0.1,0,0.2,0,0.3,0  c0.2,0.3,0.5,0.3,0.8,0.5c0,0,0.4,0.3,0.5,0.3c0.1,0,0.3,0.2,0.4,0.3c0,0,0.2,0,0.2,0c0.1,0.1,0.1,0.3,0.3,0.4  c0.1,0.1,0.1,0.3,0.1,0.6C85,77.3,85.3,77.5,85.3,77.8z"></path><path fill-rule="evenodd" clip-rule="evenodd" d="M28,73.5c0,0.4-0.2,0.6-0.3,0.8c0,0.2-0.1,0.2-0.1,0.4c0.1,0.1,0.1,0.3,0,0.3  c0,0.2-0.1,0.2-0.2,0.3c-0.1,0.1-0.1,0.2-0.3,0.2c-0.2,0.3-0.4,0.5-0.6,0.8c-0.2,0.1-0.3,0.2-0.5,0.2c-0.2,0.1-0.2,0.3-0.3,0.4  c-0.3,0.1-0.5,0.3-0.8,0.5c-0.1,0.1-0.1,0.2-0.1,0.5c-0.3,0-0.4,0.2-0.7,0.2c-0.3,0.2-0.5,0.5-0.9,0.6c-0.1,0.2-0.3,0.4-0.5,0.5  c-0.2,0.2-0.3,0.4-0.6,0.4c0,0.2-0.1,0.4-0.3,0.4c0.1,0.4-0.2,0.5-0.2,0.8c-0.3-0.2-0.3,0.2-0.4,0.3c-0.2,0.1-0.5,0.1-0.7,0.1  c0,0-0.1,0.2-0.1,0.2c-0.2,0.1-0.2,0.1-0.5,0.1c0,0.2-0.2,0.1-0.2,0.3c-0.2,0.1-0.4,0-0.7,0c-0.1,0-0.2,0.1-0.3,0.2  c-0.1,0-0.3-0.1-0.5,0c-0.4,0.1-0.5,0.3-1.1,0.2c0,0-0.4-0.1-0.5-0.1c0,0,0-0.1,0-0.1c-0.2-0.1-0.3-0.1-0.6-0.2  c-0.1,0-0.4-0.3-0.4-0.4c0,0,0-0.2,0-0.2c0,0-0.1-0.1-0.1-0.2c0-0.1,0.1-0.2,0.1-0.4c0.2-0.4,0.5-0.7,0.6-1.2c0.1,0,0.2-0.2,0.3-0.3  c0,0,0.2,0,0.2,0c0.1-0.1,0-0.2,0.2-0.2c0.2-0.2,0.4-0.5,0.5-0.7c0.1-0.1,0.3,0,0.4-0.1c0.1-0.1,0.1-0.3,0.3-0.3  c0,0,0.3-0.2,0.4-0.3c0.1-0.1,0.1-0.2,0.2-0.4c0.2-0.2,0.4-0.3,0.6-0.4c0.1-0.1,0.1-0.2,0.2-0.4c0.1-0.1,0.2-0.2,0.3-0.3  c0.1-0.1,0.2-0.2,0.2-0.3c0-0.1,0.2-0.1,0.2-0.2c0,0,0-0.1,0-0.2c0,0,0.2,0,0.2,0c0,0,0-0.1,0-0.1c0.1-0.1,0.1-0.3,0.4-0.3  c0-0.2,0.1-0.3,0.2-0.4c0.1-0.2,0-0.4,0.1-0.6c0,0,0.2-0.1,0.2-0.1c0,0,0-0.2,0-0.2c0.1-0.1,0.2-0.1,0.3-0.2  c0.1-0.1,0.1-0.1,0.2-0.2c0.2-0.1,0.3-0.3,0.6-0.3c0.1,0,0.2-0.2,0.3-0.3c0.2-0.1,0.3-0.3,0.4-0.3c0.1-0.1,0.2,0,0.4-0.1  c0,0,0-0.1,0.1-0.1c0.1,0,0.2-0.2,0.3-0.2c0.2,0,0.4-0.1,0.4-0.3c0.1,0.2,0.7,0,0.8,0.2c0.2-0.1,0.4-0.2,0.6-0.2  c0.1,0,0.3,0.1,0.4,0c0.1-0.1,0.2,0,0.6,0.1c0.1,0,0.2,0.2,0.4,0.2c0.2,0,0.4,0.4,0.5,0.6C27.6,73.2,27.9,73.2,28,73.5z"></path><path fill-rule="evenodd" clip-rule="evenodd" d="M90.1,30.3c0-0.1,0.8-0.1,1,0c0.5,0.1,0.9,0.4,1.3,0.5c0.2,0.4,0.4,0.8,0.7,1.2  c-0.1,0.2,0.1,0.4,0.1,0.6c0,0.2-0.1,0.3-0.1,0.5c0,0.2,0.1,0.2,0,0.3c-0.1,0.2-0.3,0.4-0.5,0.6c-0.1,0.1-0.3,0.1-0.6,0.2  c-0.1,0-0.1,0-0.2,0.1c0,0-0.1,0.1-0.1,0.1c-0.1,0-0.2,0-0.4,0.1c0,0-0.1,0.2-0.1,0.2c0,0-0.1,0-0.2,0c0,0-0.1,0.2-0.1,0.2  c-0.1,0-0.1,0-0.2,0c-0.1,0.1-0.2,0.1-0.3,0.2c0,0-0.2,0-0.2,0C90,34.8,90,35,89.7,35c-0.1,0-0.1,0.2-0.1,0.4c-0.2,0-0.3,0-0.4,0.1  c0,0-0.1,0.2-0.1,0.2c0,0-0.1,0-0.2,0c-0.2,0.1-0.3,0.3-0.5,0.4c-0.4,0.2-0.8,0.4-1.3,0.6c-0.2,0-0.2,0.2-0.3,0.4  c-0.3,0-0.5,0.1-0.7,0.2c-0.1,0,0,0.1-0.1,0.1c-0.2,0-0.4,0.1-0.4,0.3c-0.2,0-0.4,0-0.6,0.1c-0.2,0-0.2,0.2-0.3,0.3  c-0.1,0.1-0.3,0.1-0.4,0.2c0,0,0,0.2,0,0.2c-0.1,0-0.2,0-0.3,0.1c-0.1,0.1-0.1,0.2-0.2,0.3c-0.2,0.1-0.4,0.1-0.6,0.2  c-0.2,0.2-0.4,0.4-0.7,0.5c-0.1,0.1-0.2,0.2-0.4,0.2c0,0.2-0.3,0.3-0.4,0.3c-0.1,0,0,0.1-0.1,0.1c-0.2,0-0.2,0.1-0.3,0.2  c-0.2,0.1-0.5,0.2-0.7,0.4c0,0-0.1,0.1-0.1,0.2c-0.3,0-0.3,0.2-0.6,0.1c-0.1,0.1-0.3,0.2-0.4,0.3c-0.1,0.1-0.2,0-0.3,0.1  c-0.1,0.1,0,0.2-0.1,0.3c-0.2,0.1-0.4,0.3-0.7,0.4c-0.1,0.1-0.3,0.1-0.5,0.2c-0.1,0.1-0.1,0.1-0.2,0.2c-0.1,0-0.2,0-0.3,0.1  c0,0,0,0.1-0.1,0.1c-0.2,0-0.2,0.1-0.4,0.2c-0.1,0-0.2,0-0.3,0.1c-0.1,0-0.1,0.1-0.2,0.2c-0.1,0-0.2,0-0.2,0.1  c-0.3-0.1-0.4-0.1-0.8-0.1c0,0-0.1,0.1-0.2,0.1c0,0,0-0.1-0.1-0.1c0,0,0,0.1-0.1,0.1c0.1,0-0.7,0.2-0.8,0c0,0,0-0.1,0-0.1  c0,0-0.2,0-0.2,0c0,0,0-0.1,0-0.1c-0.1-0.1-0.2-0.2-0.4-0.2c-0.1-0.2-0.4-0.3-0.6-0.4c0-0.1,0-0.4-0.2-0.4c-0.1,0,0-0.1,0-0.2  c0,0-0.2-0.1-0.2-0.1c0-0.2,0-0.8,0.1-1.1c0,0,0.1,0,0.1-0.1c0.1-0.2,0.1-0.5,0.4-0.3c0-0.2,0-0.3,0.1-0.4c0.1-0.1,0.2,0,0.3-0.1  c0,0,0.1-0.2,0.1-0.2c0.1-0.1,0.3-0.1,0.4-0.2c0.1,0,0.1-0.1,0.2-0.2c0.1-0.1,0.2-0.1,0.4-0.2c0.1,0,0-0.1,0.1-0.1  c0.1,0,0.2-0.2,0.4-0.3c0.1-0.1,0.3-0.1,0.4-0.2c0.2-0.2,0.4-0.3,0.6-0.5c0.2,0.1,0.3-0.1,0.5-0.2c0.1,0,0.2,0,0.3-0.1  c0,0,0.1-0.2,0.1-0.2c0.2-0.1,0.3,0,0.5-0.2c0.2-0.1,0.2-0.2,0.3-0.3c0.1-0.1,0.4-0.1,0.5-0.2c0.2-0.1,0.3-0.3,0.5-0.4  c0.1-0.1,0.4-0.1,0.6-0.2c0.1,0,0.1-0.1,0.2-0.2c0,0,0.2,0,0.2,0c0.1-0.1,0.1-0.3,0.3-0.3c0.1,0,0.2-0.3,0.4-0.3c0,0,0.2,0,0.2,0  c0,0,0-0.1,0-0.1c0,0,0.2,0,0.2,0c0.1-0.1,0.2-0.1,0.3-0.2c0.1-0.1,0.1-0.2,0.3-0.3c0,0,0.2,0,0.2,0c0,0,0-0.1,0-0.1  c0.1,0,0.1-0.2,0.2-0.2c0,0,0.2,0,0.2,0c0.1-0.1,0.3-0.3,0.6-0.4c0.1-0.1,0.3-0.2,0.5-0.3c0.1,0,0.1-0.1,0.2-0.2c0,0,0.2,0,0.2,0  c0.1-0.1,0.1-0.3,0.3-0.3c0.1,0,0.2-0.1,0.3-0.2c0.1,0,0.1,0,0.2-0.1c0,0,0-0.2,0-0.2c0.1-0.1,0.2,0,0.3-0.1  c0.1-0.1,0.3-0.2,0.4-0.3c0.1-0.1,0.2-0.2,0.3-0.3c0,0,0.2,0,0.2,0c0,0,0-0.2,0-0.2c0,0,0.2,0,0.2,0c0,0,0.2-0.3,0.3-0.4  c0.1-0.1,0.2,0,0.3-0.1c0,0,0.1-0.2,0.1-0.2c0,0,0.2,0,0.2,0c0.1-0.1,0.4-0.3,0.6-0.4c0.2-0.1,0.3-0.2,0.6-0.3c0.1,0,0-0.1,0.1-0.1  c0,0,0.3-0.2,0.4-0.3c0.3-0.2,0.4,0.1,0.7,0C89.6,30.6,89.6,30.2,90.1,30.3z"></path><path fill-rule="evenodd" clip-rule="evenodd" d="M52.3,36.8c0,0.2,0.3,0,0.4,0.1c0,0,0.2,0.3,0.4,0.3c0.2,0.1,0.4-0.1,0.5-0.1  c0,0,0,0.1,0.1,0.1c0.2,0,0.4,0,0.6,0c0,0,0,0.1,0.1,0.1c0.2,0,0.3,0,0.6,0.1c0,0,0,0.1,0.1,0.1c0.1,0,0.2,0.1,0.4,0.1  c0.1,0,0.5,0.1,0.8,0.2c0,0,0,0.1,0.1,0.1c0,0,0.1,0,0.1,0c0.1,0,0.2,0,0.5,0.1c0.2,0.1,0.4,0.2,0.5,0.3c0.1,0.1,0.2,0.1,0.4,0.1  c0,0,0,0.1,0.1,0.1c0.2,0.1,0.3,0.1,0.5,0.2c0.1,0,0.2,0.2,0.4,0.2c0.1,0,0.3,0.1,0.4,0.3c0.3,0,0.4,0,0.6,0.1  c0.1,0,0.1,0.1,0.1,0.1c0.1,0.1,0.2,0,0.4,0.1c0.1,0.1,0.1,0.1,0.3,0.2c0.2,0.1,0.5,0.1,0.7,0.2c0,0,0,0.1,0.1,0.1  c0.1,0,0.5,0.3,0.6,0.3c0.1,0,0.1,0.1,0.3,0.1c-0.1,0.2,0,0.2,0.1,0.4c0.2-0.2,0.4,0.1,0.7,0.1c0,0.2,0.3,0.2,0.4,0.3  c0.1,0.1,0.2,0.3,0.3,0.4c0.1,0.1,0.2,0,0.3,0.1c0.1,0.1,0.1,0.2,0.3,0.3c0.3,0.1,0.6,0.5,0.9,0.8c0,0,0,0.2,0,0.2  c0.1,0.1,0.4,0.2,0.5,0.4c0.1,0.1,0,0.2,0.1,0.3c0,0,0.1,0,0.1,0.1c0,0.1,0.1,0.2,0.2,0.3c0,0.1,0,0.1,0.1,0.2  c0,0.1,0.1,0.1,0.2,0.2c0,0,0,0.2,0,0.2c0,0,0.1,0,0.1,0c0,0.1,0.1,0.5,0.2,0.5c0.1,0,0.4,0.5,0.5,0.7c0.1,0.2,0.2,0.3,0.3,0.5  c0,0.1,0,0.1,0.1,0.1c0.1,0,0,0.1,0.1,0.2c0,0,0.2,0.1,0.2,0.1c0,0.1,0,0.2,0.2,0.4c0.1,0,0.1,0.1,0.1,0.2c0,0.1,0.1,0.2,0.2,0.5  c0.3,0.1,0.2,0.4,0.3,0.6c0,0,0.2,0,0.1,0.1c-0.1,0-0.1,0.1,0,0.3c0,0,0,0.2,0,0.2c0.1,0.1,0.1,0.1,0.2,0.2c0,0,0,0.2,0,0.2  c0,0,0.2,0.3,0.2,0.5c0,0.2,0,0.3,0.1,0.5c0,0,0.1,0,0.1,0.1c0,0.1,0.2,0.2,0.2,0.4c0,0.2,0,0.2,0.2,0.2c0,0.2,0,0.3,0,0.5  c0.3,0.1,0.2,0.5,0.3,0.8c0.1,0.3,0.2,0.5,0.2,0.8c0.1,0.3,0.1,0.6,0.1,0.9c0,0.1,0.1,0.3,0.2,0.4c0,0.1,0,0.2,0,0.3  c0,0,0.2,0.4,0.1,0.5c-0.1,0.1-0.1,0.1,0,0.2c0.1,0.2-0.2,0.3-0.1,0.7c0,0,0.1,0.2,0.1,0.3c-0.1,0.1-0.1,0.1,0,0.4  c0,0.1,0.1,0.6,0.1,0.8c0,0.4-0.1,0.8-0.1,1.3c0,0.2,0.1,0.2,0,0.6c0,0,0,0.2,0,0.2c-0.1,0.1,0,0.4-0.1,0.6c0,0-0.1,0-0.1,0.1  c0,0.2-0.2,0.3-0.3,0.5c0.1,0.4-0.1,0.6-0.2,0.9c-0.1,0.2-0.1,0.5-0.2,0.6C69,62.8,69,62.8,68.9,63c0,0,0,0.2,0,0.2  c-0.1,0-0.2,0.1-0.2,0.2c0,0.1,0.1,0.1,0.1,0.2c0,0-0.1,0-0.1,0.1c0,0.3-0.1,0.4-0.1,0.7c-0.1,0-0.1,0.2-0.2,0.3c0,0-0.2,0-0.2,0  c0,0,0,0.1,0,0.1c-0.1,0.1-0.1,0.5-0.5,0.5c0,0.2-0.1,0.2-0.1,0.4c-0.1,0.2-0.2,0.4-0.3,0.6c0,0.1-0.1,0.2-0.1,0.3  c-0.1,0.1-0.1,0.2-0.2,0.3c-0.1,0.1,0,0.2-0.1,0.4c-0.1,0.1-0.1,0-0.2,0.1c-0.1,0.1,0,0.3-0.1,0.5c0,0-0.2,0.2-0.3,0.3  c0,0-0.2,0.1-0.2,0.1c0,0,0,0.2,0,0.2c-0.1,0.1-0.2,0.1-0.3,0.2c0,0-0.2,0.1-0.2,0.1c0,0,0,0.2,0,0.2c-0.1,0.1-0.2,0.1-0.3,0.2  c-0.1,0,0,0.1-0.1,0.1c-0.1,0,0,0.1-0.1,0.2c-0.1,0.1-0.4,0.3-0.5,0.4c0,0-0.1,0.1-0.1,0.2c0,0-0.2,0-0.2,0.1  c-0.1,0.1,0,0.3-0.1,0.4c0,0-0.2,0-0.2,0c-0.1,0.1-0.2,0.3-0.3,0.4c-0.3,0.3-0.7,0.5-1,0.9c-0.1,0.3-0.1,0.6-0.2,0.9  c0,0,0,0.2,0,0.2c-0.1,0.1,0,0.3,0,0.7c0,0.2-0.1,0.5-0.1,0.7c0,0.2,0.1,0.4,0.1,0.6c0,0.2,0,0.4,0,0.7c0,0.1,0.1,0.2,0.1,0.3  c0,0-0.1,0-0.1,0.1c0,0.1,0.2,0.4,0.2,0.6c0,0.2,0,0.4,0,0.6c0,0.2,0.1,0.2,0.1,0.4c0,0-0.1,0.1-0.1,0.2c0,0,0.1,0,0.1,0.1  c0.1,0.2,0.1,0.7,0,1.2c0,0.2-0.1,0.2-0.1,0.3c0,0.1,0.1,0.1,0.1,0.1c0,0.1-0.1,0.1-0.1,0.1c0,0.2,0.1,0.2,0.1,0.4  c0,0.6,0.1,1.4,0,2.1c0,0,0,0.2,0,0.2c-0.1,0.1,0,0.1,0,0.5c0,0.2-0.1,0.3-0.1,0.5c-0.1,0.4-0.2,0.8-0.4,1.3  c-0.1,0.3-0.2,0.6-0.2,0.9c-0.1,0.2,0,0.5-0.2,0.6c0,0.2,0.1,0.4,0,0.7c-0.1,0-0.1,0.2-0.1,0.3c0,0.1-0.2,0.1-0.2,0.2  c-0.1,0.1-0.1,0.2-0.1,0.3c0,0-0.1,0-0.1,0.1c0,0.1-0.3,0.2-0.4,0.3c-0.1,0.1-0.1,0.3-0.2,0.4c-0.3,0-0.5,0.2-0.8,0.3  c-0.1,0-0.3,0-0.5,0.1c-0.1,0-0.1,0.1-0.1,0.2c0,0-0.2,0-0.2,0c-0.1,0.2-1,0.2-1.4,0.3c-0.1,0-0.2,0.1-0.3,0.1  c-0.1,0-0.2,0.1-0.4,0.2c0,0-0.2,0-0.2,0c-0.2,0.2-0.5,0-0.9,0c-0.2,0-0.8,0.3-1.2,0c0,0.1-0.2,0-0.3,0.1c-0.1,0-0.1,0.1-0.2,0.2  c-0.1,0-0.1,0-0.2,0c-0.1,0-0.2,0.1-0.3,0.1c-0.1,0-0.1,0.1-0.1,0.1c-0.1,0-0.3-0.2-0.5-0.1c-0.1,0.1-0.3,0-0.7,0  c-0.2,0-0.3,0.1-0.5,0.2c-0.1,0-0.2,0-0.3,0c-0.1,0-0.1,0.1-0.2,0.1c-0.2,0-0.3,0-0.5,0c-0.1,0-0.1,0.1-0.3,0.1  c-0.1,0-0.3-0.2-0.5-0.1c0,0,0,0.2,0,0.2c-0.1,0-0.2-0.1-0.4-0.1c-0.1,0-0.2,0.1-0.3,0.1c0,0,0-0.1-0.1-0.1c-0.1,0-0.2,0.1-0.5,0.1  c-0.4,0-0.8-0.2-1.2-0.2c-0.3,0-0.5,0-0.8,0c-0.2,0-0.3,0-0.5,0c-0.1,0-0.1,0.1-0.3,0.1c-0.2,0-0.5-0.1-0.7-0.1c0,0-0.2,0.2-0.3,0.1  c0,0-0.1-0.1-0.2-0.1c0,0-0.1,0.1-0.1,0.1c-0.3-0.1-0.5-0.2-0.7-0.4c-0.3-0.1-0.4,0.1-0.7,0c-0.2-0.2-0.5-0.3-0.7-0.4  c0,0,0-0.1-0.1-0.1c0.1,0-0.4-0.1-0.5-0.1c-0.1-0.1-0.1-0.3-0.3-0.3c-0.2,0-0.8-0.7-1-1c0,0,0-0.2,0-0.2c0,0-0.1,0-0.1,0  c0,0,0-0.2,0-0.2c-0.2-0.2,0.1-0.4,0-0.8c0,0-0.2-0.3-0.1-0.6c0-0.1,0.1-0.2,0.1-0.4c0-0.2-0.1-0.3-0.1-0.6c0-0.2,0-0.5,0-0.8  c0-0.1-0.1-0.1-0.2-0.4c-0.1-0.4,0-0.8-0.1-1.3c0-0.2-0.1-0.4-0.1-0.6c0-0.2,0-0.4,0-0.7c0-0.3-0.2-0.5-0.1-0.9c0,0,0.1,0,0.1-0.1  c0,0-0.1,0-0.1-0.1c0-0.4-0.1-0.7-0.1-1.2c0-0.1-0.1-0.2-0.1-0.3c0-0.1,0.1-0.1,0.1-0.2c0-0.3-0.2-0.6-0.2-0.9  c0-0.6,0.1-1.2-0.1-1.8c0.1-0.1-0.1-0.1-0.1-0.2c0-0.1,0-0.3,0-0.4c0-0.1-0.1-0.2-0.1-0.3c0-0.1,0.1-0.1,0.1-0.3  c0,0-0.2-0.1-0.2-0.1c0-0.1,0.1-0.1,0.1-0.1c0-0.2-0.1-0.6-0.1-0.9c0,0-0.1,0-0.1-0.1c0-0.3,0-0.3-0.1-0.6c-0.1-0.4-0.1-0.8-0.2-1.2  c0-0.1,0-0.5-0.2-0.5c0-0.2,0.1-0.3,0-0.5c0-0.1-0.1-0.1-0.2-0.2c-0.1-0.1,0-0.2-0.1-0.3c0-0.1,0-0.2-0.1-0.3c0,0-0.2,0-0.2,0  c0,0,0-0.4-0.1-0.5c0-0.1-0.1-0.1-0.2-0.2c-0.1-0.2-0.1-0.4-0.2-0.5c-0.1-0.1-0.1-0.2-0.3-0.3c-0.2-0.2-0.4-0.5-0.7-0.7  c-0.4-0.3-0.9-0.4-1.1-0.9c-0.3,0.1-0.5-0.2-0.7-0.3c-0.1-0.1-0.2-0.2-0.4-0.2c-0.1,0-0.3-0.1-0.4-0.1c0,0,0-0.2-0.1-0.2  c-0.1-0.1-0.2-0.1-0.4-0.2c-0.1-0.1-0.2-0.3-0.3-0.4c0,0-0.2,0-0.2,0c-0.1-0.1-0.2-0.2-0.4-0.3c-0.3-0.2-0.6-0.4-0.9-0.7  C32.4,63.4,32,63.2,32,63c0,0-0.3-0.4-0.4-0.4c-0.2-0.1-0.5-0.3-0.5-0.6c-0.5,0-0.3-0.7-0.8-0.7c0.3-0.3-0.3-0.3-0.1-0.8  c-0.2-0.1-0.2-0.5-0.4-0.7c0.1-0.3,0-0.6,0-0.8c0,0,0-0.2,0-0.2c-0.1-0.1,0-0.1,0-0.3c0-0.1-0.1-0.1-0.1-0.1c0,0,0.2-0.4,0.1-0.7  c0-0.3-0.1-0.6-0.1-0.8c0-0.4,0.2-0.7,0.3-1.1c0-0.2,0-0.4,0-0.7c0-0.1,0-0.1,0-0.2c0-0.1-0.1-0.1-0.1-0.1c0-0.1,0.1,0,0.1-0.1  c0-0.1-0.1-0.1-0.1-0.1c0-0.1,0.1-0.2,0.1-0.3c0-0.2,0.1-0.2,0.1-0.4c0.1-0.2,0-0.3,0.2-0.3c-0.1-0.2,0-0.5,0-0.7  c0-0.2-0.1-0.5,0-0.7c0-0.3,0.3-0.5,0.3-0.8c0,0,0-0.2,0-0.2c-0.1-0.1,0,0,0-0.1c0-0.2,0.1-0.6,0.1-0.8c0,0-0.1-0.1-0.1-0.1  c0-0.2,0.1-0.2,0.1-0.4c0-0.1-0.1-0.2-0.1-0.4c0-0.1,0.1-0.3,0.2-0.4c0.1-0.2,0.1-0.3,0.1-0.5c0,0,0.1,0,0.1-0.1c0,0,0-0.3,0-0.3  c0.1-0.1,0.2,0,0.2-0.1c0,0,0-0.3,0-0.3c0.1-0.1,0.2-0.4,0.3-0.6c0-0.1,0.1,0,0.1-0.1c0-0.2,0.4-0.5,0.3-0.9c0.3,0,0.1-0.4,0.5-0.3  c0.1-0.4,0.3-0.6,0.5-0.9c0.1-0.2,0.2-0.3,0.3-0.4c0.1-0.1,0.1-0.3,0.2-0.5c0-0.1,0.2-0.1,0.2-0.2c0.1-0.2,0.2-0.5,0.3-0.7  c0-0.1,0.2-0.1,0.2-0.2c0.1-0.2,0.1-0.3,0.2-0.5c0,0,0.1,0,0.1-0.1c0,0,0.2-0.2,0.2-0.3c0,0,0.2,0,0.2,0c0.1-0.1,0.3-0.3,0.4-0.3  c0.1-0.1,0.2,0,0.3-0.1c0.1-0.1,0.3-0.4,0.5-0.4c0.1-0.2,0.3-0.2,0.5-0.3c0.3-0.2,0.5-0.5,0.8-0.8c0.1-0.1,0.3-0.1,0.5-0.2  c0.2-0.1,0.3-0.3,0.4-0.4c0.1-0.1,0.3-0.1,0.5-0.2c0,0,0.1-0.2,0.1-0.2c0.1,0,0.2,0,0.4-0.2c0.1-0.1,0.2-0.3,0.3-0.4  c0.3,0.1,0.4-0.2,0.6-0.3c0,0,0.2,0,0.2,0c0.1-0.1,0.6-0.2,1-0.3c0,0,0-0.1,0.1-0.1c0.1,0,0.3,0.1,0.4,0c0.3-0.3,1.2-0.1,1.6-0.4  c0.1-0.1,0.4-0.1,0.6-0.2c0.3,0,0.4,0,0.7-0.1c0.1-0.1,0.2-0.2,0.3-0.3c0,0,0.2,0,0.2,0c0,0,0-0.1,0-0.1c0,0,0.2,0,0.2,0  c0,0,0.2-0.2,0.3-0.3c0.3,0.1,0.6,0,0.8,0c0.3,0,0.5-0.1,0.8-0.1c0.2,0,0.5,0.1,0.7,0.1c0.2,0,0.4-0.1,0.7,0c0.2,0,0.2,0.1,0.4,0.1  c0.2,0,0.2-0.1,0.4-0.1c0.2,0,0.8,0,1.1,0.1C51.1,36.6,51.7,36.9,52.3,36.8z M56.7,72.1c0-0.2,0-0.5,0-0.6c0-0.1-0.1-0.1-0.1-0.1  c0-0.1,0.1-0.1,0.1-0.2c0-0.3,0.1-0.7,0.2-0.9c0,0,0.2-0.1,0.2-0.2c0.1-0.1,0-0.2,0.1-0.4c0.1-0.1,0.2-0.1,0.2-0.2  c0.1-0.1,0.1-0.3,0.1-0.4c0-0.1,0.2-0.1,0.2-0.2c0,0,0-0.1,0-0.2c0,0,0.2,0,0.2-0.1c0,0,0-0.1,0-0.2c0,0,0.2,0,0.2-0.1  c0.1-0.1,0-0.3,0.1-0.4c0.2-0.2,0.5-0.3,0.7-0.5c0.4-0.3,0.7-0.6,1-0.9c0.1-0.1,0.2-0.2,0.3-0.4c0.1-0.1,0-0.1,0.1-0.2  c0,0,0.2,0,0.2,0c0,0,0-0.2,0-0.2c0,0,0.2,0,0.2-0.1c0.1-0.1,0-0.2,0.1-0.3c0.1-0.1,0.2-0.2,0.3-0.3c0.3-0.2,0.6-0.7,0.7-0.9  c0.1-0.2,0.2-0.3,0.3-0.4c0.1-0.1,0-0.2,0.1-0.3c0.1-0.1,0.2-0.2,0.3-0.4c0.1-0.1,0.1-0.3,0.2-0.4c0.1-0.1,0.2-0.3,0.3-0.4  c0.1-0.4,0.2-1,0.6-1.4c-0.1-0.6,0.4-1,0.6-1.5c0.1-0.3,0.1-0.4,0.1-0.6c0-0.1,0.1-0.1,0.1-0.1c0-0.2-0.1-0.2-0.1-0.4  c0-0.1,0.1,0,0.1-0.1c0-0.1-0.1-0.2-0.1-0.2c0-0.2,0.1-0.3,0.1-0.4c0-0.2-0.1-0.2-0.1-0.4c0-0.2,0-0.3,0-0.5c0-0.3,0.1-0.4,0-0.5  c0,0-0.1-0.3-0.1-0.3c0-0.3,0.1-0.6,0.1-0.7c0,0-0.1-0.1-0.1-0.1c0-0.4,0.1-0.9,0-1.2c0,0-0.1,0-0.1-0.1c0-0.1,0-0.3-0.1-0.4  c0-0.1-0.2,0-0.2-0.1c0.1,0,0-0.1,0-0.1c0-0.1,0.1-0.1,0.1-0.1c0-0.1-0.1-0.1-0.1-0.1c0-0.2-0.1-0.7-0.1-0.8  c-0.1-0.2-0.3-0.7-0.3-0.8c0-0.1-0.1-0.1-0.1-0.1c0-0.1,0-0.2,0-0.3c0,0-0.2-0.1-0.2-0.1c0-0.1-0.1-0.3-0.1-0.4c0-0.2,0-0.3-0.1-0.5  c0,0-0.2-0.1-0.2-0.1c0,0,0.1-0.1,0.1-0.1c0-0.3-0.1-0.4-0.2-0.5c0,0,0-0.2,0-0.2c0-0.1-0.1-0.1-0.2-0.2c0-0.1,0-0.2,0-0.3  c0,0-0.1-0.1-0.2-0.2c-0.1-0.1-0.1-0.3-0.2-0.5c0-0.1-0.1-0.1-0.2-0.2c-0.1-0.3-0.2-0.4-0.3-0.6c-0.2-0.2-0.5-0.5-0.5-0.7  c0-0.2-0.3-0.2-0.3-0.4c0-0.2-0.2-0.1-0.2-0.4c0-0.1-0.2-0.1-0.3-0.2c-0.1-0.1-0.1-0.3-0.2-0.4c-0.1-0.1-0.3-0.2-0.3-0.4  c-0.2-0.1-0.3-0.2-0.4-0.3c-0.1-0.1-0.2-0.3-0.3-0.4c-0.1-0.1-0.3,0-0.4-0.1c0,0-0.1-0.2-0.1-0.2c-0.1-0.1-0.4,0.1-0.4-0.1  c0-0.1,0-0.1-0.1-0.1c-0.1-0.1-0.1-0.1-0.2-0.2c0,0-0.2-0.1-0.3-0.1c-0.1-0.1-0.2-0.1-0.3-0.1c-0.1,0,0-0.1-0.1-0.1  c-0.1-0.1-0.2,0-0.4-0.1c0,0,0-0.2-0.1-0.2c0,0-0.3-0.1-0.3-0.1c-0.1,0,0-0.1-0.1-0.1c-0.2-0.1-0.5-0.1-0.6-0.1c0,0,0-0.2-0.1-0.2  c-0.2-0.1-0.6-0.1-0.8-0.2c0,0-0.1-0.1-0.1-0.1c-0.1-0.1-0.4-0.2-0.4-0.2c-0.1,0,0-0.1-0.1-0.1c-0.3-0.2-0.7-0.3-0.8-0.4  c0-0.1-0.3,0-0.4,0c-0.2-0.1-0.2-0.2-0.4-0.2c-0.3-0.1-0.6-0.1-0.9-0.2c-0.3-0.1-0.6-0.2-0.8-0.2c-0.2-0.1-0.4,0-0.6,0  c0,0-0.1-0.2-0.1-0.2c-0.2-0.1-0.6,0-0.8-0.1c-0.1,0-0.1-0.1-0.2-0.1c0,0-0.1,0.1-0.1,0.1c-0.1,0-0.1-0.1-0.2-0.1  c0,0-0.2,0.2-0.3,0.2c-0.1,0-0.1-0.1-0.3-0.1c-0.1,0-0.1,0.2-0.2,0.2c-0.2,0-0.5,0-0.7,0c-0.4,0.1-0.8,0.1-1.1,0.3c0,0-0.1,0-0.1,0  c-0.1-0.1,0,0-0.1,0.1c-0.1,0.1-0.3,0.1-0.4,0.2c-0.1-0.1-0.2-0.4-0.5-0.3c-0.5,0.1-1,0.2-1.4,0.3c-0.4,0.1-0.9,0.4-1.3,0.5  c-0.1,0.2-0.4,0.2-0.4,0.5c-0.3,0-0.4,0.1-0.5,0.2c0,0-0.1,0-0.1,0c0,0,0,0.2,0,0.2c-0.1,0.1-0.2,0.1-0.3,0.2  c-0.2,0.2-0.5,0.5-0.6,0.6c0,0-0.2,0-0.2,0c-0.2,0.1-0.5,0.3-0.5,0.5c-0.4,0.1-0.5,0.4-0.8,0.6c-0.3,0.2-0.6,0.4-0.9,0.6  c-0.1,0.1,0,0.2-0.1,0.3c0,0-0.2,0.1-0.2,0.1c0,0,0,0.2,0,0.2c0,0.1-0.1,0.1-0.2,0.2c0,0-0.1,0.2-0.1,0.2c0,0.1-0.1,0-0.1,0.1  c-0.1,0.1-0.2,0.3-0.2,0.4c-0.1,0.1-0.1,0.2-0.2,0.3c-0.1,0.2-0.2,0.2-0.2,0.4c0,0.1-0.1,0-0.1,0.1c-0.1,0.2-0.2,0.4-0.3,0.5  c-0.1,0.1,0,0.2-0.1,0.3c-0.1,0.1-0.2,0.1-0.3,0.2c0,0,0,0.1,0,0.2c0,0.1-0.1,0.1-0.1,0.1c-0.1,0.2-0.2,0.4-0.2,0.5  c-0.2,0.2-0.3,0.4-0.3,0.7c0,0.1-0.1,0.1-0.1,0.1c-0.2,0.5-0.2,0.8-0.3,1.2c-0.1,0.3-0.2,0.7-0.2,0.9c0,0.1,0.1,0.1,0.1,0.1  c0,0.1-0.1,0.1-0.1,0.2c-0.1,0.3-0.2,0.5-0.2,0.8c0,0.4,0,0.2,0,0.6c0,0.1,0,0.3,0,0.5c0,0-0.1,0-0.1,0.1c0,0,0.1,0,0.1,0.1  c0,0.5,0,0.9-0.1,1.3c0,0.1-0.1,0.2-0.1,0.3c0,0,0.1,0.1,0.1,0.1c0,0.1-0.1,0.1-0.1,0.2c-0.1,0.3-0.1,0.2,0,0.4  c0,0.1-0.1,0.2-0.1,0.2c0,0.3,0.1,0.6,0.1,0.9c0,0.3-0.2,0.6-0.1,0.7c0.2,0.2-0.1,0.8,0,0.8c0.2,0.4,0.6,0.6,0.7,1.1  c0.3,0.1,0.3,0.2,0.4,0.3c0,0,0,0.2,0,0.2c0.1,0.1,0.2,0.1,0.3,0.1c0.2,0.1,0.3,0.2,0.4,0.3c0.1,0.1,0.1,0.2,0.2,0.2  c0.1,0.2,0.3,0.1,0.5,0.2c0,0,0,0.1,0,0.1c0,0,0.2,0,0.2,0c0,0,0.1,0.2,0.2,0.2c0.2,0.2,0.6,0.6,0.8,0.6c0.1,0,0.3,0.2,0.4,0.2  c0.2,0.1,0.2,0.3,0.4,0.2c0,0,0.4,0.2,0.4,0.2c0.1,0,0.1,0.2,0.2,0.2c0.1,0.1,0.3,0,0.4,0.1c0,0,0,0.2,0,0.2c0.1,0.1,0.3,0,0.4,0.1  c0,0,0,0.2,0,0.2c0,0.1,0.2,0.1,0.3,0.1c0.1,0.1,0.3,0.3,0.4,0.3c0.2,0,0.2,0.2,0.3,0.3c0.1,0.1,0.4,0.2,0.4,0.3c0,0,0,0.2,0,0.2  c0,0.1,0.3,0.1,0.3,0.2c0,0.2,0.3,0.1,0.4,0.2c0.1,0.1,0.4,0.5,0.4,0.7c0,0.1,0.1,0.1,0.1,0.1c0.1,0.1,0.1,0.3,0.2,0.4  c0.1,0.3,0.3,0.5,0.4,0.8c0.1,0.3,0.2,0.6,0.3,0.9c0.1,0.3,0.3,0.5,0.4,0.8c0.1,0.1,0,0.3,0.1,0.5c0,0,0.2,0.1,0.2,0.1  c0.1,0.1,0,0.2,0.1,0.3c0,0,0,0.2,0,0.2c0,0.1,0.1,0.1,0.1,0.2c0,0.2-0.1,0.3,0.1,0.5c0.2,0.8,0.1,1.9,0.4,2.7  c0.3-0.1,0.3,0.2,0.4,0.2c0.1,0.1,0.3-0.1,0.3-0.1c0.1,0,0.2,0.1,0.4,0.1c0.2,0,0.4,0,0.6,0c0.1,0,0.2,0.1,0.3,0.2  c0.1,0.1,0.1,0.1,0.3,0.1c0.1,0,0,0.1,0.1,0.1c0.2,0.1,0.5,0.3,0.6,0.3c0.1,0,0.1,0.1,0.1,0.1c0.2,0.1,0.4,0.1,0.6,0.1  c0.2,0.1,0.4,0.2,0.6,0.2c0.4,0.1,0.9,0.2,1.4,0.4c0.2-0.2,0.5-0.2,0.9-0.2c0.4-0.1,0.3,0.2,0.6,0.2c0-0.1,0.1-0.1,0.2-0.1  c0.1,0,0.1-0.1,0.1-0.1c0.3-0.1,0.6,0,0.9,0c0.2,0,0.5-0.1,0.6-0.1c0.1,0,0.1-0.1,0.1-0.1c0.1,0,0.1,0.1,0.2,0.1  c0.3,0,0.6-0.1,0.8-0.1c0.2,0,0.3,0,0.5-0.1c0.1,0,0.1-0.2,0.2-0.2c0.1,0,0.1-0.1,0.1-0.1c0.2-0.1,0.3,0.1,0.5-0.1  C56.4,73.9,56.6,73,56.7,72.1z M56.6,79.7c-0.1,0.1-0.3,0.1-0.6,0.1c-0.1,0.1-0.2,0-0.4,0c-0.1,0-0.2,0-0.4,0.1c0,0,0,0.1,0,0.1  c0,0-0.3,0-0.4,0c-0.5,0-1.3-0.1-1.8,0c-0.1,0-0.1,0.1-0.1,0.1c-0.1,0-0.1-0.1-0.1-0.1c-0.1,0-0.3-0.1-0.5,0c0,0-0.1,0.1-0.1,0.1  c-0.3,0-0.5-0.2-0.6,0c-0.1,0.1-0.1-0.1-0.1-0.1c-0.3,0-0.4,0.1-0.7,0c-0.2-0.1-0.3,0-0.7,0c-0.5,0-1-0.1-1.3-0.2  c-0.3,0-0.5,0-0.8-0.1c-0.3,0-0.4-0.2-0.6,0c-0.1,0.1-0.1-0.1-0.1-0.1c-0.6-0.1-1.1-0.2-1.7-0.3c0,0.3-0.3,0.6,0,0.7  c0,1.6,0.7,2.6,0.7,4.2c0.5,0.2,0.9,0.3,1.5,0.4c0.1,0,0.1,0.1,0.2,0.1c0,0,0-0.1,0.1-0.1c0.1,0,0.1,0.1,0.1,0.1  c0.2,0.1,0.5,0.1,0.7,0.1c0.1,0,0.2,0.1,0.3,0.1c0.1,0,0.1-0.1,0.2-0.1c0.1,0,0.1,0.1,0.2,0.1c0.5,0.1,0.6,0.1,0.9,0.1  c0.2,0,0.5-0.1,0.6-0.1c0.1,0,0-0.1,0.1-0.1c0.3-0.2,1-0.1,1.4-0.1c0.1,0,0.1-0.1,0.1-0.1c0.2,0,0.3,0,0.5,0c0.8,0,1.4-0.1,2.2-0.1  c0-0.2,0.3-0.3,0.3-0.3c0,0,0-0.2,0-0.2c0,0,0.1,0,0.1,0c0.1,0,0.1-0.4,0.1-0.5c0-0.2,0.2-0.2,0.2-0.4c0-0.1,0.1-0.1,0.1-0.1  c0-0.1,0-0.3,0-0.4c0.1-0.4,0.3-0.9,0.3-1.2c0-0.3,0-0.2,0-0.5c0.1-0.3-0.1-0.7,0-0.7c0,0,0.1,0,0.1-0.1  C56.9,79.9,56.9,79.7,56.6,79.7C56.7,79.7,56.6,79.7,56.6,79.7z"></path></svg>